<svg width="24" height="24" viewBox="0 0 24 24" fill="none" xmlns="http://www.w3.org/2000/svg">
<path d="M3.61549 1.54978C3.33759 1.24263 2.86331 1.21892 2.55615 1.49682C2.249 1.77472 2.22528 2.249 2.50319 2.55615L5.84708 6.25203C4.37752 6.29109 2.97637 6.8919 1.93414 7.93414C0.855802 9.01247 0.25 10.475 0.25 12C0.25 13.525 0.855802 14.9875 1.93414 16.0659C2.46807 16.5998 3.10195 17.0233 3.79957 17.3123C4.49719 17.6013 5.2449 17.75 6 17.75H9C9.41421 17.75 9.75 17.4142 9.75 17C9.75 16.5858 9.41421 16.25 9 16.25H6C5.44188 16.25 4.88923 16.1401 4.3736 15.9265C3.85796 15.7129 3.38945 15.3999 2.9948 15.0052C2.19777 14.2082 1.75 13.1272 1.75 12C1.75 10.8728 2.19777 9.79183 2.9948 8.9948C3.79183 8.19777 4.87283 7.75 6 7.75H7.20238L10.369 11.25H8C7.58579 11.25 7.25 11.5858 7.25 12C7.25 12.4142 7.58579 12.75 8 12.75H11.7262L14.899 16.2567C14.5325 16.3061 14.25 16.6201 14.25 17C14.25 17.4142 14.5858 17.75 15 17.75H16.25L20.4968 22.4438C20.7747 22.751 21.249 22.7747 21.5562 22.4968C21.8633 22.2189 21.887 21.7446 21.6091 21.4375L3.61549 1.54978Z" fill="#F7444D"/>
<path d="M18.5922 16.2085L19.7489 17.4776C19.9014 17.4289 20.052 17.3738 20.2004 17.3123C20.8981 17.0233 21.5319 16.5998 22.0659 16.0659C22.5998 15.5319 23.0233 14.8981 23.3123 14.2004C23.6013 13.5028 23.75 12.7551 23.75 12C23.75 11.2449 23.6013 10.4972 23.3123 9.79957C23.0233 9.10195 22.5998 8.46808 22.0659 7.93414C21.5319 7.4002 20.8981 6.97666 20.2004 6.6877C19.5028 6.39873 18.7551 6.25 18 6.25H15C14.5858 6.25 14.25 6.58579 14.25 7C14.25 7.41422 14.5858 7.75 15 7.75H18C18.5581 7.75 19.1108 7.85993 19.6264 8.07351C20.142 8.2871 20.6106 8.60015 21.0052 8.9948C21.3999 9.38945 21.7129 9.85796 21.9265 10.3736C22.1401 10.8892 22.25 11.4419 22.25 12C22.25 12.5581 22.1401 13.1108 21.9265 13.6264C21.7129 14.142 21.3999 14.6106 21.0052 15.0052C20.6106 15.3999 20.142 15.7129 19.6264 15.9265C19.2942 16.0641 18.9467 16.1587 18.5922 16.2085Z" fill="#F7444D"/>
<path d="M16 11.25H14.0725L15.4398 12.75H16C16.4142 12.75 16.75 12.4142 16.75 12C16.75 11.5858 16.4142 11.25 16 11.25Z" fill="#F7444D"/>
</svg>
